<svg width="132" height="185" viewBox="0 0 132 185" fill="none" xmlns="http://www.w3.org/2000/svg">
<path d="M65.9746 2C84.6936 2 98.9503 5.77291 108.987 13.0654L108.993 13.0693C119.013 20.2929 124.041 30.4966 124.041 43.9424C124.041 53.0892 121.643 61.054 116.89 67.9121L116.887 67.916C112.216 74.6888 104.691 80.7318 94.1348 85.9697L90.7637 87.6416L94.0352 89.5C107.22 96.9874 116.289 104.365 121.462 111.575L121.47 111.585L121.477 111.595C126.739 118.743 129.334 126.415 129.334 134.657C129.334 150.106 123.786 161.876 112.77 170.236C101.668 178.661 85.9882 183 65.4824 183C44.5403 183 28.8299 178.773 18.0713 170.605C7.40008 162.423 2 150.703 2 135.149C2.00005 125.059 4.41902 116.608 9.1582 109.693L9.16406 109.685C13.9091 102.684 21.996 96.1889 33.6455 90.2832L36.6865 88.7422L33.8574 86.8398C24.7935 80.7451 18.1879 74.3078 13.9307 67.5605L13.5264 66.9062C9.37204 59.8427 7.29303 52.1195 7.29297 43.6963C7.29297 30.5234 12.3819 20.4377 22.5752 13.2012L22.583 13.1953C32.8743 5.81074 47.2633 2.00001 65.9746 2ZM64.0557 107.41C56.6457 111.323 51.1262 115.372 47.6826 119.61L47.6797 119.614C44.3163 123.774 42.5576 128.31 42.5576 133.181C42.5577 138.806 44.5835 143.477 48.666 147.003L48.6758 147.012L48.6865 147.02C52.7682 150.452 58.2871 152.043 64.9902 152.043C72.3965 152.043 78.3135 150.696 82.4199 147.687C86.6421 144.592 88.6533 139.963 88.6533 134.165C88.6533 129.572 86.8142 125.196 83.3916 121.071C80.0375 116.851 74.1719 112.322 66.0137 107.46L65.0488 106.886L64.0557 107.41ZM65.7285 33.0801C61.1325 33.0801 57.1363 34.441 53.8672 37.2324C50.5189 40.0067 48.835 43.6981 48.835 48.127C48.835 56.2552 54.4037 63.0216 64.2539 68.5781L65.248 69.1387L66.2363 68.5684C72.1203 65.1706 76.3838 61.9328 78.7646 58.8193C81.1661 55.6789 82.376 52.0922 82.376 48.127C82.3759 43.6309 80.703 39.8927 77.3438 37.1094C74.084 34.4084 70.1762 33.0801 65.7285 33.0801Z" stroke="#2B2B2B" stroke-width="4"/>
</svg>
