<svg width="127" height="185" viewBox="0 0 127 185" fill="none" xmlns="http://www.w3.org/2000/svg">
<path d="M112.096 2V39.0693H50.1074L49.9385 40.8838L47.6914 64.9766L47.4443 67.6289L50.0605 67.126C56.5517 65.8777 61.0298 65.2419 63.5996 65.1641L63.6299 65.1631L63.6602 65.1611C66.3731 64.9967 68.8709 64.915 71.1543 64.915C81.3136 64.9151 90.406 67.2896 98.4814 72.0068L98.4922 72.0127L98.502 72.0186C106.647 76.6499 112.954 83.2295 117.442 91.8047L117.445 91.8115L117.449 91.8174C122.016 100.391 124.329 110.337 124.329 121.711C124.329 141.675 118.316 156.715 106.528 167.149L106.523 167.154C94.8058 177.596 76.8178 183 52.1797 183C31.6573 183 14.9646 179.919 2 173.875V137.765C8.64636 140.595 15.9829 142.964 24.0029 144.877L24.0068 144.878C33.2529 147.063 41.2798 148.178 48.0596 148.178C57.4577 148.178 64.9939 146.217 70.3867 142.013L70.3945 142.006L70.4023 142C75.888 137.63 78.5214 131.251 78.5215 123.209C78.5215 115.676 75.7957 109.614 70.2646 105.281C64.7633 100.972 56.6625 98.9883 46.3125 98.9883C38.5515 98.9883 30.2395 100.409 21.3877 103.207L5.21094 95.1738L11.8496 2H112.096Z" stroke="#2B2B2B" stroke-width="4"/>
</svg>
