<svg width="134" height="185" viewBox="0 0 134 185" fill="none" xmlns="http://www.w3.org/2000/svg">
<path d="M64.0146 2C85.6049 2 102.091 9.14245 113.759 23.2705C125.471 37.4525 131.467 57.7791 131.467 84.5293C131.467 119.657 123.881 144.611 109.164 159.885C94.4585 175.147 70.7155 183 37.4453 183C27.5034 183 19.7803 182.661 14.2344 182.005V147.464C20.6505 148.527 27.0693 149.061 33.4902 149.061C51.1953 149.061 65.1561 145.433 75.1074 137.904L75.1162 137.897C85.1892 130.189 90.501 118.148 91.3457 102.184L91.457 100.077H86.6748L86.1074 101.125C82.9464 106.961 79.9163 110.996 77.0615 113.4C74.1655 115.839 70.5821 117.74 66.2666 119.074C61.9888 120.396 56.5597 121.086 49.9268 121.086C34.768 121.086 23.1311 116.047 14.7529 106.103C6.33189 96.1075 2.00006 82.2017 2 64.1387C2 44.5116 7.56062 29.3749 18.4678 18.4678C29.4619 7.55566 44.5614 2.00001 64.0146 2ZM65.374 37.0518C59.469 37.0518 54.5431 39.2169 50.7676 43.5449L50.7598 43.5537L50.752 43.5635C46.9984 47.9739 45.3311 54.7766 45.3311 63.5205C45.3311 70.5452 46.8298 76.3928 50.0293 80.8721L50.041 80.8877C53.3827 85.4705 58.4617 87.6416 64.8799 87.6416C70.7773 87.6416 75.9288 85.4862 80.2432 81.2617C84.5742 77.0209 86.7764 71.8542 86.7764 65.8682C86.7763 58.423 84.9468 51.8859 81.2178 46.3438L80.8516 45.8105C76.9164 40.0955 71.7303 37.0518 65.374 37.0518Z" stroke="#2B2B2B" stroke-width="4"/>
</svg>
