<svg width="132" height="185" viewBox="0 0 132 185" fill="none" xmlns="http://www.w3.org/2000/svg">
<path d="M94.2852 2C101.04 2.00002 108.904 2.60677 117.887 3.83203V37.7373C110.21 36.4366 101.972 35.7881 93.1768 35.7881C76.6843 35.7881 64.0078 39.4051 55.5312 47.0078C47.0073 54.653 42.5719 66.9326 41.8213 83.3623L41.7256 85.4531H46.5L47.0635 84.3887C50.6088 77.6919 55.1777 72.7566 60.7422 69.4834C66.3104 66.208 72.9929 64.5283 80.8682 64.5283C96.399 64.5283 108.185 69.5221 116.516 79.332L116.521 79.3379L116.527 79.3447C124.979 89.1269 129.334 102.922 129.334 120.995C129.334 140.379 123.875 155.466 113.159 166.497C102.467 177.423 87.4473 183 67.8213 183C47.0427 183 31.0173 176.285 19.4805 163.01C7.91382 149.7 2.00005 130.943 2 106.471C2 81.5249 5.54916 61.5311 12.5244 46.3779C19.5789 31.1489 29.8733 20.0072 43.4004 12.8457L43.3994 12.8447C57.0716 5.64974 74.0045 2 94.2852 2ZM67.2061 98.0703C61.1217 98.0703 56.0212 100.152 52.082 104.366L52.0664 104.384C48.2622 108.55 46.3731 113.635 46.373 119.518C46.373 127.674 48.1162 134.57 51.752 140.068L51.7559 140.075L51.7598 140.081C55.4531 145.576 60.4764 148.474 66.7129 148.474C72.4559 148.474 77.2128 146.296 80.8066 141.965C84.5294 137.495 86.1914 130.692 86.1914 121.979C86.1914 114.473 84.7459 108.476 81.5254 104.322C78.23 100.072 73.3314 98.0704 67.2061 98.0703Z" stroke="#2B2B2B" stroke-width="4"/>
</svg>
