<svg width="129" height="185" viewBox="0 0 129 185" fill="none" xmlns="http://www.w3.org/2000/svg">
<path d="M63.7588 2C82.1501 2 96.3025 5.64967 106.434 12.7178C116.48 19.7269 121.456 29.2885 121.456 41.6035C121.456 52.3166 118.202 61.449 111.721 69.1055C105.23 76.6907 95.7661 82.3018 83.1592 85.835L81.6992 86.2441V90.2637L83.4502 90.4844C98.2321 92.3423 109.027 96.7324 116.112 103.431C123.145 110.079 126.749 119.215 126.749 131.088C126.749 147.201 120.398 159.762 107.638 168.978L107.633 168.98C94.8844 178.245 76.9737 183 53.666 183C44.0788 183 35.2065 182.309 27.0439 180.936H27.0449C19.3591 179.629 11.0131 177.286 2 173.895V138.12C9.07053 141.494 16.248 144.067 23.5312 145.833L23.542 145.835L23.5537 145.838C31.8755 147.752 39.5778 148.72 46.6504 148.72C57.4119 148.72 65.6284 147.246 70.9551 143.996L70.9629 143.991C76.5484 140.547 79.2988 135.14 79.2988 128.134C79.2988 122.875 77.9349 118.531 74.9189 115.418C71.9907 112.314 67.4583 110.183 61.626 108.83H61.625C55.7486 107.386 48.1945 106.686 39.0186 106.686H29.9404V74.1289H39.2646C51.7201 74.1289 61.3643 72.5469 67.9629 69.1709C71.2909 67.4682 73.901 65.2796 75.6738 62.5586C77.4534 59.8272 78.3144 56.6737 78.3145 53.1738C78.3145 47.8015 76.1737 43.5917 71.8311 40.8896C67.7904 38.3247 62.4951 37.1416 56.1279 37.1416C44.7207 37.1416 33.0309 40.8007 21.083 47.9688L2.95996 18.7939C11.8111 12.901 20.8104 8.68102 29.959 6.11035L29.958 6.10938C39.7575 3.37881 51.0174 2.00003 63.7588 2Z" stroke="#2B2B2B" stroke-width="4"/>
</svg>
