<svg width="135" height="185" viewBox="0 0 135 185" fill="none" xmlns="http://www.w3.org/2000/svg">
<path d="M69.9834 2C81.5561 2.00003 91.7892 4.03649 100.723 8.06055L100.729 8.06348C109.731 12.0822 116.611 17.7912 121.453 25.1729L121.467 25.1943C126.392 32.5025 128.859 40.7176 128.859 49.8984C128.859 56.8796 127.967 63.2946 126.2 69.1562L126.196 69.1689L126.193 69.1807C124.506 75.0469 121.847 80.8578 118.199 86.6152C114.544 92.3008 109.643 98.3539 103.471 104.773L103.461 104.783C97.3715 111.202 84.2516 123.457 64.0322 141.597L63.3672 142.192V146.332H132.353V183H3.99609V153.387L47.9531 108.938L47.9648 108.927L47.9766 108.914C60.6915 95.6174 69.0653 86.4944 73.0342 81.5967L73.0439 81.583C76.989 76.6307 79.8093 72.2824 81.4102 68.5615L81.4111 68.5625C83.1082 64.8111 83.959 60.8703 83.959 56.7598C83.9589 51.5437 82.2429 47.2224 78.6748 44.04C75.1192 40.8688 70.2577 39.416 64.3691 39.416C58.2294 39.4161 52.0726 41.1984 45.9229 44.6631C40.3539 47.7668 34.1411 52.243 27.29 58.0547L2.7959 29.3848C11.5008 21.7109 18.7875 16.2625 24.6768 12.9736L24.6943 12.9639C30.9331 9.39887 37.7067 6.67801 45.0234 4.80762L45.0244 4.80859C52.4036 2.94353 60.7187 2 69.9834 2Z" stroke="#2B2B2B" stroke-width="4"/>
</svg>
